<svg xmlns="http://www.w3.org/2000/svg" viewBox="7 -34 150 122">
  <!-- Logo complet centré -->
  <g transform="translate(0, 0)">
    <style>
      .fc1 { fill: #040405; }
      .fc2 { fill: #b84543; }
      .fc3 { fill: #2b2b2b; }
      .fc4 { fill: #5773a7; }
      .fc5 { fill: #fdfdfd; }
    </style>
    <path class="fc5" d="M88.33,2.46c.21-.24,1.11-.37,1.46-.39,2.74-.2,5.64-.07,8.4-.11,11.64-.2,23.38-.24,35.01,0,8.69.18,21.71-.23,27.27,7.75,3.98,5.71,3.16,14.48-1.48,19.59-.65.72-2.2,1.49-1.38,2.58.21.28.5.38.72.6,8.32,8.06,4.87,21.33-3.97,27.46-5.03,3.48-10.95,4.57-16.96,4.87-11.24.56-22.67-.17-33.94.13-1.11-.15-2.23-.26-3.32-.52-.5-.12-1.08-.46-1.59-.46-1.05,0-2.93.66-4.09.84-4.13.65-9.26.49-13.41-.12-.38-.06-.88-.3-1.23-.31-.63-.03-2.02.51-2.86.57-1.35.1-2.84-.04-4.21,0-8.1.18-16.35.35-24.47.13-14.49-.38-29.11.03-43.66-.12-2.07-.16-3.38-1.03-3.05-3.3.21-1.4,2.21-4.54,3.02-5.86,2.46-4,5.29-8.04,8.08-11.83,5.98-8.09,11.35-13.61,21.51-16.02,7.21-1.71,15-1.75,22.36-2.95,1.2-.19,2.67-.4,3.82-.74.28-.08.8-.22.93-.51.1-.22-.14-.18-.27-.21-.95-.23-1.84-.16-2.79-.21-11.05-.59-22.28.29-33.34-.24-2.18,0-3.71-.61-3.54-3.06.12-1.75.74-4.18,1.12-5.96.6-2.85,1.24-6.11,2.04-8.88.49-1.69,1.22-2.98,3.16-3.2,1.51-.17,3.14-.08,4.67-.13,12.27-.37,24.77-.45,37.06-.12,4.69.12,9.39.18,14,1.11,1.47.3,2.9.76,4.35,1.17.74-.16.21-1.11.57-1.53Z"/>
    <path class="fc1" d="M48.36,47.89c2.98.03,5.96-.04,8.94,0,7.65.08,15.37.09,23.02.25,1.42.03,3.07-.14,4.44,0,.64.06,1.05.17,1.02.9-.03.94-1,3.17-1.42,4.1-1,2.22-3.68,7.26-5.85,8.3-.63.3-1.33.41-2.02.5-23.51-.04-47.04.08-70.53-.12-1.44-.16-.36-1.74.04-2.49,1.83-3.35,4.42-7.01,6.64-10.15,4-5.66,8.99-12.3,15.13-15.69,6.82-3.77,14.97-4.07,22.57-4.78,4.23-.39,13.65-.77,16.44-4.31.62-.79.91-2.21-.02-2.86-1.29-.9-4.18-1-5.74-1.09-9.8-.61-19.77-.36-29.62-.24-2.17.03-4.37.09-6.51-.22-.34-.16-.44-.57-.38-.92.99-4,1.7-8.07,2.69-12.07.11-.43.32-1.53.6-1.8.41-.4,1.47-.2,2.05-.23,3.64-.21,7.25-.19,10.92-.24,11.1-.15,22.26-.5,33.33.12,5.82.33,13.06.79,17.09,5.58,4.35,5.16,2.44,14.11-.98,19.29-5.21,7.9-14.27,10.29-23.08,11.94-4.88.92-15.33,1.99-18.58,5.89-.1.12-.23.15-.18.36Z"/>
    <path class="fc4" d="M94.98,4.98c15.12.25,30.46-.5,45.54.09,5.3.21,10.74.59,15.11,3.96,6.68,5.14,5.13,16.24-1.58,20.73-.6.4-1.46.72-2,1.11-.1.07-.24.13-.2.28,2.98,1.54,5.65,3.64,6.98,6.81,3.06,7.31-.77,15.6-7.11,19.68-8.58,5.52-20.06,4-29.8,4.26-.92.02-1.84.07-2.75.13-4.96-.51-10.29.24-15.24-.12-.7-.05-1.57-.3-1.16-1.17,3.27-3.94,5.71-8.5,7.85-13.14.82-1.78,1.49-3.69,2.35-5.44.18-.37.43-.99.92-.99.96,0,2.66,2.99,3.36,3.72,1.15,1.21,2.93.89,4.44.95,5.05.21,10.19.45,15.23,0,1.15-.1,1.92-.04,2.88-.84,1.14-.95,1.87-3.51.6-4.56-.98-.8-2.22-.65-3.36-.72-4.2-.26-8.49-.25-12.71-.36-3.31-.09-5.32.6-7.62-2.22-3.18-3.9-6.14-8.02-9.24-11.99-4.89-6.26-9.83-12.49-14.68-18.78-1.34-1.76,1.16-1.15,2.18-1.4Z"/>
    <path class="fc4" d="M88.14,47.2c-1.05-1.05-3.19-1.12-4.58-1.23-4.26-.33-8.59.09-12.84-.35-.6-.06-1.13-.08-1.73-.25v-.36c5.01-1.09,9.85-2.29,14.35-4.78,7.41-4.1,10.94-9.64,12.93-17.77.14-.55.48-3.09.97-3.23s1.19.79,1.48,1.13c2.85,3.37,5.72,7.36,8.39,10.91,2.47,3.28,4.62,4.95,3.39,9.39s-4.45,11.17-6.94,14.77c-4.59,6.62-10.41,7.27-17.98,6.6-.89-.08-2.52.12-2.01-1.29,2.24-3.31,5.76-7.87,5.31-12.09-.04-.39-.49-1.19-.76-1.46Z"/>
  </g>
</svg>
