<svg xmlns="http://www.w3.org/2000/svg" viewBox="0 0 164.54 66.72">
  <path
    fill="none"
    stroke="white"
    stroke-width="0.3"
    stroke-linejoin="round"
    stroke-linecap="round"
    d="M47.52,24.74c.19-.01,1.32,0,1.32-.18l-1.32-.06c-7.79.26-15.64.05-23.45.12-1.06-.19-2.09-.31-2.94-1.02-1.43-1.19-1.42-2.46-1.19-4.19.57-4.26,1.85-9.33,2.9-13.53.56-2.26.88-4.31,3.38-5.13.73-.24,1.1-.17,1.81-.23,6.52-.55,13.11-.19,19.67-.36,8.8-.22,17.81-.27,26.62.24,3.06.17,6.18.27,9.21.87,1.06.21,2.09.54,3.14.79.55-.66.95-1.11,1.84-1.27,1.85-.33,4.07-.21,5.97-.27,12.26-.36,24.66-.36,36.94-.12,9.96.19,25.36-.43,31.03,9.63,3.38,6,2.49,14.57-1.94,19.81-.23.28-1.31,1.19-1.3,1.44,2.32,2.08,3.95,4.68,4.74,7.71,1.97,7.54-1.12,15.98-6.98,20.89s-13.46,6.19-21.11,6.47c-10.63.4-21.36-.05-32.03.13-1.23-.18-2.47-.22-3.68-.52-.41-.1-.88-.36-1.26-.42-1.13-.19-3.7.62-5.02.8-3.96.54-8.73.5-12.67-.14-.41-.07-.97-.34-1.35-.34-.59,0-1.69.42-2.41.47-.95.08-1.93-.1-2.86.14H4.4c-2.62-.07-4.69-1.7-4.36-4.49.3-2.6,3.59-7.47,5.1-9.78,4.86-7.48,11.59-17.51,19.32-22.05,6.75-3.96,15.37-4.96,23.06-5.42Z"
  />
</svg>
