<?xml version="1.0" encoding="UTF-8"?>
<svg id="Calque_1" data-name="Calque 1" xmlns="http://www.w3.org/2000/svg" viewBox="0 0 164.54 66.72">
  <defs>
    <style>
      .cls-1 {
        fill: #040405;
      }

      .cls-2 {
        fill: #b84543;
      }

      .cls-3 {
        fill: #2b2b2b;
      }

      .cls-4 {
        fill: #5773a7;
      }

      .cls-5 {
        fill: #fdfdfd;
      }
    </style>
  </defs>
  <path class="cls-1" d="M47.52,24.74c.19-.01,1.32,0,1.32-.18l-1.32-.06c-7.79.26-15.64.05-23.45.12-1.06-.19-2.09-.31-2.94-1.02-1.43-1.19-1.42-2.46-1.19-4.19.57-4.26,1.85-9.33,2.9-13.53.56-2.26.88-4.31,3.38-5.13.73-.24,1.1-.17,1.81-.23,6.52-.55,13.11-.19,19.67-.36,8.8-.22,17.81-.27,26.62.24,3.06.17,6.18.27,9.21.87,1.06.21,2.09.54,3.14.79.55-.66.95-1.11,1.84-1.27,1.85-.33,4.07-.21,5.97-.27,12.26-.36,24.66-.36,36.94-.12,9.96.19,25.36-.43,31.03,9.63,3.38,6,2.49,14.57-1.94,19.81-.23.28-1.31,1.19-1.3,1.44,2.32,2.08,3.95,4.68,4.74,7.71,1.97,7.54-1.12,15.98-6.98,20.89s-13.46,6.19-21.11,6.47c-10.63.4-21.36-.05-32.03.13-1.23-.18-2.47-.22-3.68-.52-.41-.1-.88-.36-1.26-.42-1.13-.19-3.7.62-5.02.8-3.96.54-8.73.5-12.67-.14-.41-.07-.97-.34-1.35-.34-.59,0-1.69.42-2.41.47-.95.08-1.93-.1-2.86.14H4.4c-2.62-.07-4.69-1.7-4.36-4.49.3-2.6,3.59-7.47,5.1-9.78,4.86-7.48,11.59-17.51,19.32-22.05,6.75-3.96,15.37-4.96,23.06-5.42ZM88.33,2.46c-.37.42.17,1.38-.57,1.53-1.45-.41-2.88-.87-4.35-1.17-4.61-.94-9.31-.99-14-1.11-12.29-.33-24.78-.25-37.06.12-1.53.05-3.16-.04-4.67.13-1.94.22-2.67,1.51-3.16,3.2-.8,2.77-1.44,6.03-2.04,8.88-.37,1.78-1,4.21-1.12,5.96-.16,2.45,1.36,3.05,3.54,3.06,11.05.53,22.29-.34,33.34.24.95.05,1.84-.02,2.79.21.12.03.37,0,.27.21-.13.28-.65.42-.93.51-1.14.34-2.62.55-3.82.74-7.35,1.2-15.14,1.24-22.36,2.95-10.17,2.41-15.54,7.93-21.51,16.02-2.79,3.78-5.62,7.82-8.08,11.83-.81,1.32-2.81,4.46-3.02,5.86-.34,2.27.98,3.14,3.05,3.3,14.54.15,29.17-.26,43.66.12,8.12.21,16.37.05,24.47-.13,1.37-.03,2.86.11,4.21,0,.83-.06,2.22-.59,2.86-.57.34.02.85.26,1.23.31,4.15.61,9.28.76,13.41.12,1.16-.18,3.04-.83,4.09-.84.51,0,1.09.34,1.59.46,1.09.26,2.21.37,3.32.52,11.27-.3,22.71.43,33.94-.13,6.01-.3,11.93-1.38,16.96-4.87,8.85-6.13,12.29-19.39,3.97-27.46-.22-.21-.52-.32-.72-.6-.81-1.09.73-1.86,1.38-2.58,4.63-5.11,5.45-13.88,1.48-19.59-5.56-7.98-18.58-7.58-27.27-7.75-11.63-.24-23.38-.19-35.01,0-2.76.05-5.66-.08-8.4.11-.36.03-1.25.15-1.46.39Z"/>
  <path class="cls-4" d="M47.52,24.5l1.32.06c0,.18-1.13.17-1.32.18v-.24Z"/>
  <path class="cls-5" d="M88.33,2.46c.21-.24,1.11-.37,1.46-.39,2.74-.2,5.64-.07,8.4-.11,11.64-.2,23.38-.24,35.01,0,8.69.18,21.71-.23,27.27,7.75,3.98,5.71,3.16,14.48-1.48,19.59-.65.72-2.2,1.49-1.38,2.58.21.28.5.38.72.6,8.32,8.06,4.87,21.33-3.97,27.46-5.03,3.48-10.95,4.57-16.96,4.87-11.24.56-22.67-.17-33.94.13-1.11-.15-2.23-.26-3.32-.52-.5-.12-1.08-.46-1.59-.46-1.05,0-2.93.66-4.09.84-4.13.65-9.26.49-13.41-.12-.38-.06-.88-.3-1.23-.31-.63-.03-2.02.51-2.86.57-1.35.1-2.84-.04-4.21,0-8.1.18-16.35.35-24.47.13-14.49-.38-29.11.03-43.66-.12-2.07-.16-3.38-1.03-3.05-3.3.21-1.4,2.21-4.54,3.02-5.86,2.46-4,5.29-8.04,8.08-11.83,5.98-8.09,11.35-13.61,21.51-16.02,7.21-1.71,15-1.75,22.36-2.95,1.2-.19,2.67-.4,3.82-.74.28-.08.8-.22.93-.51.1-.22-.14-.18-.27-.21-.95-.23-1.84-.16-2.79-.21-11.05-.59-22.28.29-33.34-.24-2.18,0-3.71-.61-3.54-3.06.12-1.75.74-4.18,1.12-5.96.6-2.85,1.24-6.11,2.04-8.88.49-1.69,1.22-2.98,3.16-3.2,1.51-.17,3.14-.08,4.67-.13,12.27-.37,24.77-.45,37.06-.12,4.69.12,9.39.18,14,1.11,1.47.3,2.9.76,4.35,1.17.74-.16.21-1.11.57-1.53ZM48.36,47.89c-.05-.21.08-.24.18-.36,3.25-3.9,13.7-4.97,18.58-5.89,8.81-1.65,17.87-4.04,23.08-11.94,3.42-5.18,5.32-14.13.98-19.29-4.04-4.79-11.28-5.25-17.09-5.58-11.07-.62-22.24-.27-33.33-.12-3.66.05-7.27.02-10.92.24-.58.03-1.64-.17-2.05.23-.28.27-.49,1.37-.6,1.8-.99,4-1.7,8.07-2.69,12.07-.06.35.04.76.38.92,2.14.31,4.34.24,6.51.22,9.84-.13,19.81-.38,29.62.24,1.56.1,4.46.19,5.74,1.09.93.66.64,2.08.02,2.86-2.79,3.54-12.2,3.92-16.44,4.31-7.59.7-15.75,1.01-22.57,4.78-6.14,3.39-11.13,10.03-15.13,15.69-2.22,3.14-4.81,6.8-6.64,10.15-.41.75-1.48,2.33-.04,2.49,23.49.2,47.02.08,70.53.12.69-.09,1.38-.2,2.02-.5,2.17-1.04,4.86-6.08,5.85-8.3.42-.93,1.39-3.17,1.42-4.1.03-.72-.39-.84-1.02-.9-1.38-.13-3.02.04-4.44,0-7.65-.16-15.37-.17-23.02-.25-2.98-.03-5.96.03-8.94,0ZM94.98,4.98c-1.02.25-3.52-.36-2.18,1.4,4.85,6.29,9.8,12.52,14.68,18.78,3.1,3.97,6.05,8.09,9.24,11.99,2.3,2.82,4.31,2.13,7.62,2.22,4.21.12,8.51.11,12.71.36,1.14.07,2.39-.09,3.36.72,1.27,1.04.54,3.61-.6,4.56-.96.8-1.73.74-2.88.84-5.04.45-10.18.21-15.23,0-1.51-.06-3.29.25-4.44-.95-.69-.72-2.4-3.72-3.36-3.72-.49,0-.74.62-.92.99-.86,1.75-1.53,3.66-2.35,5.44-2.14,4.64-4.58,9.2-7.85,13.14-.41.87.46,1.12,1.16,1.17,4.95.36,10.28-.38,15.24.12.91-.06,1.83-.11,2.75-.13,9.74-.26,21.23,1.26,29.8-4.26,6.34-4.08,10.17-12.38,7.11-19.68-1.33-3.17-4-5.28-6.98-6.81-.04-.16.1-.21.2-.28.54-.4,1.41-.72,2-1.11,6.71-4.49,8.26-15.58,1.58-20.73-4.37-3.36-9.82-3.75-15.11-3.96-15.08-.59-30.42.16-45.54-.09ZM88.14,47.2c.27.27.72,1.07.76,1.46.45,4.22-3.07,8.78-5.31,12.09-.51,1.41,1.12,1.21,2.01,1.29,7.56.67,13.39.02,17.98-6.6,2.49-3.6,5.77-10.55,6.94-14.77,1.23-4.44-.92-6.11-3.39-9.39-2.68-3.56-5.54-7.54-8.39-10.91-.29-.34-1-1.27-1.48-1.13s-.84,2.68-.97,3.23c-2,8.13-5.52,13.67-12.93,17.77-4.51,2.49-9.35,3.69-14.35,4.78v.36c.6.17,1.13.19,1.73.25,4.25.44,8.58.02,12.84.35,1.39.11,3.53.18,4.58,1.23Z"/>
  <path class="cls-1" d="M48.36,47.89c2.98.03,5.96-.04,8.94,0,7.65.08,15.37.09,23.02.25,1.42.03,3.07-.14,4.44,0,.64.06,1.05.17,1.02.9-.03.94-1,3.17-1.42,4.1-1,2.22-3.68,7.26-5.85,8.3-.63.3-1.33.41-2.02.5-23.51-.04-47.04.08-70.53-.12-1.44-.16-.36-1.74.04-2.49,1.83-3.35,4.42-7.01,6.64-10.15,4-5.66,8.99-12.3,15.13-15.69,6.82-3.77,14.97-4.07,22.57-4.78,4.23-.39,13.65-.77,16.44-4.31.62-.79.91-2.21-.02-2.86-1.29-.9-4.18-1-5.74-1.09-9.8-.61-19.77-.36-29.62-.24-2.17.03-4.37.09-6.51-.22-.34-.16-.44-.57-.38-.92.99-4,1.7-8.07,2.69-12.07.11-.43.32-1.53.6-1.8.41-.4,1.47-.2,2.05-.23,3.64-.21,7.25-.19,10.92-.24,11.1-.15,22.26-.5,33.33.12,5.82.33,13.06.79,17.09,5.58,4.35,5.16,2.44,14.11-.98,19.29-5.21,7.9-14.27,10.29-23.08,11.94-4.88.92-15.33,1.99-18.58,5.89-.1.12-.23.15-.18.36ZM32.05,59.76h44.2c.19,0,1.1-.26,1.32-.36.77-.33,1.44-1.35,1.91-2.05,1.23-1.83,3.13-5.14,3.85-7.18.04-.13.07-.23.05-.37-2.26-.03-4.52.04-6.78,0-7.25-.1-14.57-.17-21.82-.25-3.12-.03-6.26.11-9.36-.12-.38-.03-.77.02-1.14,0-.19-.19.88-1.61,1.08-1.86,5.19-6.57,16.1-7,23.77-8.61,9.9-2.08,19.4-5.95,21.89-16.85,3.62-15.89-13.17-15.64-23.9-15.85-11.15-.22-22.34-.15-33.45.24-.92.03-1.85-.05-2.77,0-.59.02-1.22.23-1.85.13l-2.52,11.39c1.1-.02,2.2.03,3.3,0,9.66-.25,19.5-.28,29.14.12,2.52.1,5.72.08,8.06,1.05,3.94,1.65,2.8,5.89-.09,7.99-1.22.89-2.23,1.05-3.5,1.63-.1.05-.08.18-.17.23-.57.27-2.06.45-2.77.57-11.11,2-24.64.1-34.2,6.94-4.69,3.36-9.08,9.26-12.41,13.97-1.84,2.6-4.26,5.9-5.73,8.66-.07.13-.41.74-.34.8l.78-.12c2.73-4.46,5.81-8.79,9.05-12.89,4.72-5.96,9.97-11.57,17.51-13.8,5.07-1.5,10.44-1.26,15.66-1.5,2.78-.13,5.6-.42,8.39-.49,1.58-.04,3.19-.04,4.75.18.79.47.45.91-.25,1.2-3.02,1.3-6.34,1.96-9.44,3.4-9.73,4.51-15.6,14.23-21.6,22.65l-.62,1.12ZM59.15,32.66c-.54.02-1.08-.03-1.62,0-.87.04-1.88.2-2.75.24-.79.04-1.74-.1-2.49.02-.42.07-.9.36-1.31.49-3.44,1.04-6.8,1.79-9.97,3.59-6.26,3.54-11.33,9.79-15.6,15.46-1.85,2.46-3.96,5.26-5.57,7.87-.08.13-.17.23-.14.4,2.61-.13,5.39.17,7.98,0,.43-.03,1.37-.15,1.77-.27.12-.04.23-.07.33-.15,4.3-6.02,8.44-12.38,13.49-17.81s8.83-7.18,15.56-9.62c.13-.05.36-.04.33-.21ZM47.76,33.14c-.58.02-1.16-.03-1.74,0-4.64.2-9.4.51-13.69,2.5-7.83,3.62-15.29,13.88-20.05,20.97-.65.96-1.82,2.51-2.24,3.52-.15.37-.06.61.35.6l7.99-.06c.9-1.55,1.87-3.07,2.89-4.54,4.59-6.61,11.59-15.8,18.61-19.77,2.49-1.41,4.9-2.05,7.55-3.01.13-.05.36-.04.33-.21Z"/>
  <path class="cls-1" d="M94.98,4.98c15.12.25,30.46-.5,45.54.09,5.3.21,10.74.59,15.11,3.96,6.68,5.14,5.13,16.24-1.58,20.73-.6.4-1.46.72-2,1.11-.1.07-.24.13-.2.28,2.98,1.54,5.65,3.64,6.98,6.81,3.06,7.31-.77,15.6-7.11,19.68-8.58,5.52-20.06,4-29.8,4.26-.92.02-1.84.07-2.75.13-4.96-.51-10.29.24-15.24-.12-.7-.05-1.57-.3-1.16-1.17,3.27-3.94,5.71-8.5,7.85-13.14.82-1.78,1.49-3.69,2.35-5.44.18-.37.43-.99.92-.99.96,0,2.66,2.99,3.36,3.72,1.15,1.21,2.93.89,4.44.95,5.05.21,10.19.45,15.23,0,1.15-.1,1.92-.04,2.88-.84,1.14-.95,1.87-3.51.6-4.56-.98-.8-2.22-.65-3.36-.72-4.2-.26-8.49-.25-12.71-.36-3.31-.09-5.32.6-7.62-2.22-3.18-3.9-6.14-8.02-9.24-11.99-4.89-6.26-9.83-12.49-14.68-18.78-1.34-1.76,1.16-1.15,2.18-1.4ZM151.35,8.11c-.2-.13-1.43-.49-1.76-.58-4.34-1.24-9.25-1.15-13.74-1.26-11.57-.28-23.32-.24-34.89,0-1.93.04-3.85-.05-5.77.11-.7.06-.31.42-.05.78,4.56,6.29,9.77,12.5,14.56,18.66,1.95,2.51,3.84,5.11,5.83,7.61.83,1.05,2.56,3.47,3.6,4.07.92.53,1.49.36,2.45.42,4.32.29,8.72.24,13.07.36,1.9.05,3.8-.21,5.61.5,3.04,1.21,2.83,5.26.69,7.23-1.25,1.15-2.79,1.24-4.38,1.37-5.7.48-11.88,0-17.62,0-.52-.11-1.08-.23-1.55-.48-1.52-.8-2.08-2.62-3.31-3.7-1.24,2.96-2.55,5.9-4.02,8.76-.99,1.93-2.06,3.92-3.25,5.74-.62.95-1.35,1.83-1.97,2.77.18.02.35.11.54.12,2.7.24,5.99-.04,8.76,0,7.01.07,14.09.29,21.11,0,10.59-.43,22.26-4.21,23.2-16.5.13-1.73-.14-4.57-1.07-6.1-.05-.09-.19-.07-.25-.15-.11-.18-.12-.46-.26-.68-1.11-1.83-2.95-3.42-4.87-4.37-.62-.31-2.42-.83-2.72-1.23-.25-.32-.19-.48.06-.78.36-.45,2.28-1.1,2.96-1.48,1.49-.84,2.98-2.21,3.98-3.58,3.32-4.58,3.21-12.32-1.67-15.8-.71-.5-1.78-1.16-2.56-1.51-.35-.16-.36-.09-.7-.31Z"/>
  <path class="cls-1" d="M88.14,47.2c-1.05-1.05-3.19-1.12-4.58-1.23-4.26-.33-8.59.09-12.84-.35-.6-.06-1.13-.08-1.73-.25v-.36c5.01-1.09,9.85-2.29,14.35-4.78,7.41-4.1,10.94-9.64,12.93-17.77.14-.55.48-3.09.97-3.23s1.19.79,1.48,1.13c2.85,3.37,5.72,7.36,8.39,10.91,2.47,3.28,4.62,4.95,3.39,9.39s-4.45,11.17-6.94,14.77c-4.59,6.62-10.41,7.27-17.98,6.6-.89-.08-2.52.12-2.01-1.29,2.24-3.31,5.76-7.87,5.31-12.09-.04-.39-.49-1.19-.76-1.46ZM77.02,44.53c1.96.07,3.99-.1,5.94,0,1.58.08,4.01.3,5.37,1.1,3.18,1.88,2.21,5.55.98,8.37-.98,2.26-2.36,4.41-3.77,6.42.09.12.15.16.3.18,2.8.5,7.13.3,9.84-.6,6.61-2.18,10.33-11.06,12.62-17.12,1.06-2.81,2.08-4.72.2-7.46-2.88-4.2-6.5-8.1-9.4-12.3l-1.2-1.38c-.77,3.86-2,7.5-4.1,10.83-3,4.73-8.32,8.85-13.58,10.76-.96.35-1.98.53-2.92.93-.18.08-.33-.08-.27.27Z"/>
  <path class="cls-3" d="M32.05,59.76l.62-1.12c6.01-8.42,11.87-18.14,21.6-22.65,3.1-1.44,6.42-2.1,9.44-3.4.69-.3,1.04-.74.25-1.2-1.56-.22-3.17-.22-4.75-.18-2.79.07-5.61.36-8.39.49-5.22.24-10.59,0-15.66,1.5-7.53,2.22-12.79,7.83-17.51,13.8-3.25,4.1-6.32,8.43-9.05,12.89l-.78.12c-.07-.07.27-.67.34-.8,1.47-2.76,3.89-6.06,5.73-8.66,3.33-4.72,7.72-10.61,12.41-13.97,9.56-6.84,23.09-4.94,34.2-6.94.7-.13,2.19-.3,2.77-.57.1-.05.07-.18.17-.23,1.27-.58,2.28-.75,3.5-1.63,2.89-2.1,4.03-6.34.09-7.99-2.34-.98-5.55-.95-8.06-1.05-9.64-.4-19.48-.37-29.14-.12-1.1.03-2.2-.03-3.3,0l2.52-11.39c.63.1,1.27-.1,1.85-.13.92-.04,1.85.04,2.77,0,11.12-.39,22.31-.46,33.45-.24,10.72.21,27.52-.04,23.9,15.85-2.48,10.9-11.99,14.77-21.89,16.85-7.68,1.61-18.58,2.04-23.77,8.61-.2.25-1.27,1.66-1.08,1.86.38.02.77-.03,1.14,0,3.1.23,6.24.08,9.36.12,7.25.08,14.57.15,21.82.25,2.26.03,4.52-.03,6.78,0,.02.13,0,.24-.05.37-.72,2.04-2.62,5.36-3.85,7.18-.47.7-1.13,1.72-1.91,2.05-.23.1-1.13.36-1.32.36h-44.2Z"/>
  <path class="cls-4" d="M59.15,32.66c.03.17-.2.16-.33.21-6.73,2.44-10.61,4.28-15.56,9.62s-9.19,11.79-13.49,17.81c-.1.08-.21.12-.33.15-.4.13-1.33.24-1.77.27-2.59.17-5.37-.13-7.98,0-.03-.17.06-.27.14-.4,1.61-2.6,3.71-5.41,5.57-7.87,4.28-5.67,9.35-11.92,15.6-15.46,3.17-1.79,6.52-2.55,9.97-3.59.41-.13.89-.42,1.31-.49.76-.12,1.7.02,2.49-.02.87-.04,1.88-.2,2.75-.24.54-.03,1.08.02,1.62,0Z"/>
  <path class="cls-2" d="M47.76,33.14c.03.17-.2.16-.33.21-2.65.96-5.05,1.6-7.55,3.01-7.02,3.97-14.02,13.16-18.61,19.77-1.02,1.47-1.99,2.99-2.89,4.54l-7.99.06c-.42,0-.5-.23-.35-.6.41-1.01,1.59-2.56,2.24-3.52,4.75-7.09,12.21-17.35,20.05-20.97,4.29-1.98,9.05-2.29,13.69-2.5.58-.03,1.16.02,1.74,0Z"/>
  <path class="cls-4" d="M151.35,8.11c.34.23.35.16.7.31.79.35,1.86,1.01,2.56,1.51,4.87,3.48,4.99,11.22,1.67,15.8-1,1.38-2.49,2.74-3.98,3.58-.68.38-2.6,1.03-2.96,1.48-.24.3-.3.46-.06.78.31.4,2.1.93,2.72,1.23,1.92.95,3.75,2.53,4.87,4.37.13.22.15.5.26.68.05.09.19.07.25.15.93,1.52,1.21,4.36,1.07,6.1-.95,12.28-12.61,16.06-23.2,16.5-7.01.29-14.1.07-21.11,0-2.78-.03-6.07.25-8.76,0-.19-.02-.35-.1-.54-.12.62-.94,1.35-1.82,1.97-2.77,1.19-1.82,2.26-3.82,3.25-5.74,1.47-2.86,2.78-5.79,4.02-8.76,1.23,1.08,1.79,2.9,3.31,3.7.47.25,1.03.38,1.55.48,5.74,0,11.92.49,17.62,0,1.59-.13,3.14-.23,4.38-1.37,2.14-1.97,2.35-6.03-.69-7.23-1.82-.72-3.71-.45-5.61-.5-4.34-.12-8.74-.07-13.07-.36-.96-.07-1.53.11-2.45-.42-1.04-.6-2.77-3.03-3.6-4.07-1.98-2.5-3.87-5.1-5.83-7.61-4.79-6.16-10-12.37-14.56-18.66-.26-.36-.64-.73.05-.78,1.92-.16,3.84-.07,5.77-.11,11.58-.25,23.32-.29,34.89,0,4.49.11,9.4.02,13.74,1.26.33.1,1.56.45,1.76.58ZM116.33,18.17c-1.01.21-1.27.93-1.56,1.8-.46,1.37-1.42,4.57-1.53,5.91-.1,1.27.76.94,1.62,1.02.24.02.45.12.71.13,7.65.35,15.5-.17,23.14-.14,3-.28,5.41-2.39,5.11-5.57-.22-2.37-2.86-3.04-4.85-3.18l-22.65.03Z"/>
  <path class="cls-4" d="M77.02,44.53c-.06-.34.09-.19.27-.27.94-.4,1.96-.58,2.92-.93,5.26-1.91,10.59-6.03,13.58-10.76,2.11-3.33,3.33-6.97,4.1-10.83l1.2,1.38c2.91,4.21,6.52,8.11,9.4,12.3,1.88,2.73.86,4.65-.2,7.46-2.29,6.07-6.01,14.94-12.62,17.12-2.71.89-7.05,1.1-9.84.6-.14-.03-.21-.06-.3-.18,1.41-2.01,2.79-4.16,3.77-6.42,1.23-2.82,2.2-6.49-.98-8.37-1.36-.81-3.8-1.03-5.37-1.1-1.95-.09-3.98.07-5.94,0Z"/>
  <path class="cls-1" d="M116.33,18.17l22.65-.03c2,.14,4.63.81,4.85,3.18.3,3.18-2.11,5.29-5.11,5.57-7.64-.03-15.49.49-23.14.14-.26-.01-.47-.11-.71-.13-.86-.08-1.72.25-1.62-1.02.1-1.33,1.07-4.54,1.53-5.91.29-.87.55-1.59,1.56-1.8ZM114.92,25.58c.86.02,1.72-.03,2.58,0,6.06.21,12.29.26,18.35,0,2.07-.09,4.44.16,5.88-1.67.59-.75.8-1.99.48-2.89-.3-.83-1.37-1.16-2.18-1.3-1.04-.19-2.61-.22-3.7-.26-3.52-.11-7.21.02-10.64.76-2.66.57-8.84,2.47-10.46,4.65-.15.21-.35.43-.31.71Z"/>
  <path class="cls-5" d="M114.92,25.58c-.04-.28.16-.5.31-.71,1.62-2.18,7.8-4.08,10.46-4.65,3.44-.74,7.12-.87,10.64-.76,1.09.03,2.66.07,3.7.26.8.15,1.88.47,2.18,1.3.32.9.11,2.14-.48,2.89-1.44,1.83-3.82,1.58-5.88,1.67-6.06.26-12.29.21-18.35,0-.86-.03-1.72.03-2.58,0Z"/>
</svg>